<mxfile host="app.diagrams.net" modified="2022-08-24T09:18:45.247Z" agent="5.0 (Windows NT 10.0; Win64; x64) AppleWebKit/537.36 (KHTML, like Gecko) Chrome/104.0.5112.102 Safari/537.36 Edg/104.0.1293.63" etag="4HEaLOem8ZPINvHKgvJM" version="20.2.7" type="github">
  <diagram id="C5RBs43oDa-KdzZeNtuy" name="Page-1">
    <mxGraphModel dx="1374" dy="816" grid="1" gridSize="15" guides="1" tooltips="1" connect="1" arrows="1" fold="1" page="1" pageScale="1" pageWidth="827" pageHeight="1169" background="#283618" math="0" shadow="0">
      <root>
        <mxCell id="WIyWlLk6GJQsqaUBKTNV-0" />
        <mxCell id="WIyWlLk6GJQsqaUBKTNV-1" parent="WIyWlLk6GJQsqaUBKTNV-0" />
        <mxCell id="U22NtTWbExk0TIaXxq5v-40" style="edgeStyle=orthogonalEdgeStyle;shape=connector;rounded=1;orthogonalLoop=1;jettySize=auto;html=1;exitX=0.5;exitY=1;exitDx=0;exitDy=0;entryX=0.5;entryY=0;entryDx=0;entryDy=0;labelBackgroundColor=#283618;fontFamily=Helvetica;fontSize=25;fontColor=#FEFAE0;endArrow=classic;endFill=1;strokeColor=#CC0000;strokeWidth=4;" edge="1" parent="WIyWlLk6GJQsqaUBKTNV-1" source="U22NtTWbExk0TIaXxq5v-18" target="U22NtTWbExk0TIaXxq5v-19">
          <mxGeometry relative="1" as="geometry" />
        </mxCell>
        <mxCell id="U22NtTWbExk0TIaXxq5v-18" value="&lt;h1 style=&quot;padding: 0px; border: 0px; outline: 0px; vertical-align: baseline; background: 0px center; margin: 0px 0px 15px; font-family: Raleway, Arial, sans-serif; line-height: 1.5em; position: relative;&quot; class=&quot;entry-title&quot;&gt;&lt;font style=&quot;font-size: 22px;&quot; color=&quot;#ffffff&quot;&gt;Class 12 | Biology | chapter 2 | Sexual Reproduction in Flowering Plants&lt;/font&gt;&lt;/h1&gt;" style="text;html=1;spacing=5;spacingTop=-20;whiteSpace=wrap;overflow=hidden;rounded=0;align=center;" vertex="1" parent="WIyWlLk6GJQsqaUBKTNV-1">
          <mxGeometry x="30" y="10" width="780" height="20" as="geometry" />
        </mxCell>
        <mxCell id="U22NtTWbExk0TIaXxq5v-39" style="edgeStyle=orthogonalEdgeStyle;shape=connector;rounded=1;orthogonalLoop=1;jettySize=auto;html=1;exitX=0.5;exitY=1;exitDx=0;exitDy=0;labelBackgroundColor=#283618;fontFamily=Helvetica;fontSize=25;fontColor=#FEFAE0;endArrow=classic;endFill=1;strokeColor=#CC0000;strokeWidth=4;" edge="1" parent="WIyWlLk6GJQsqaUBKTNV-1" source="U22NtTWbExk0TIaXxq5v-19" target="U22NtTWbExk0TIaXxq5v-35">
          <mxGeometry relative="1" as="geometry" />
        </mxCell>
        <mxCell id="U22NtTWbExk0TIaXxq5v-19" value="&lt;font style=&quot;font-size: 25px;&quot;&gt;Flowers&lt;/font&gt;" style="whiteSpace=wrap;html=1;fillColor=#BC6C25;strokeColor=#DDA15E;fontColor=#FEFAE0;" vertex="1" parent="WIyWlLk6GJQsqaUBKTNV-1">
          <mxGeometry x="360" y="105" width="120" height="60" as="geometry" />
        </mxCell>
        <mxCell id="U22NtTWbExk0TIaXxq5v-42" value="" style="edgeStyle=orthogonalEdgeStyle;shape=connector;rounded=1;orthogonalLoop=1;jettySize=auto;html=1;labelBackgroundColor=#283618;fontFamily=Helvetica;fontSize=22;fontColor=#FFFFFF;endArrow=classic;endFill=1;strokeColor=#CC0000;strokeWidth=4;" edge="1" parent="WIyWlLk6GJQsqaUBKTNV-1" source="U22NtTWbExk0TIaXxq5v-29" target="U22NtTWbExk0TIaXxq5v-41">
          <mxGeometry relative="1" as="geometry" />
        </mxCell>
        <mxCell id="U22NtTWbExk0TIaXxq5v-43" style="edgeStyle=orthogonalEdgeStyle;shape=connector;rounded=1;orthogonalLoop=1;jettySize=auto;html=1;exitX=0.5;exitY=1;exitDx=0;exitDy=0;labelBackgroundColor=#283618;fontFamily=Helvetica;fontSize=22;fontColor=#FFFFFF;endArrow=classic;endFill=1;strokeColor=#CC0000;strokeWidth=4;" edge="1" parent="WIyWlLk6GJQsqaUBKTNV-1" source="U22NtTWbExk0TIaXxq5v-29" target="U22NtTWbExk0TIaXxq5v-44">
          <mxGeometry relative="1" as="geometry">
            <mxPoint x="345" y="540" as="targetPoint" />
          </mxGeometry>
        </mxCell>
        <mxCell id="U22NtTWbExk0TIaXxq5v-29" value="Non essential whorl" style="rounded=0;whiteSpace=wrap;html=1;fontSize=25;fillColor=#BC6C25;strokeColor=#DDA15E;fontColor=#FEFAE0;" vertex="1" parent="WIyWlLk6GJQsqaUBKTNV-1">
          <mxGeometry x="75" y="390" width="275" height="60" as="geometry" />
        </mxCell>
        <mxCell id="U22NtTWbExk0TIaXxq5v-33" value="" style="endArrow=classic;html=1;rounded=1;fontSize=25;exitX=0.5;exitY=1;exitDx=0;exitDy=0;entryX=0.5;entryY=0;entryDx=0;entryDy=0;strokeColor=#CC0000;fontColor=#FEFAE0;labelBackgroundColor=#283618;endFill=1;strokeWidth=4;edgeStyle=orthogonalEdgeStyle;" edge="1" parent="WIyWlLk6GJQsqaUBKTNV-1" source="U22NtTWbExk0TIaXxq5v-35" target="U22NtTWbExk0TIaXxq5v-34">
          <mxGeometry width="50" height="50" relative="1" as="geometry">
            <mxPoint x="440" y="540" as="sourcePoint" />
            <mxPoint x="620" y="250" as="targetPoint" />
          </mxGeometry>
        </mxCell>
        <mxCell id="U22NtTWbExk0TIaXxq5v-46" value="" style="edgeStyle=orthogonalEdgeStyle;shape=connector;rounded=1;orthogonalLoop=1;jettySize=auto;html=1;labelBackgroundColor=#283618;fontFamily=Helvetica;fontSize=22;fontColor=#FFFFFF;endArrow=classic;endFill=1;strokeColor=#CC0000;strokeWidth=4;" edge="1" parent="WIyWlLk6GJQsqaUBKTNV-1" source="U22NtTWbExk0TIaXxq5v-34" target="U22NtTWbExk0TIaXxq5v-45">
          <mxGeometry relative="1" as="geometry" />
        </mxCell>
        <mxCell id="U22NtTWbExk0TIaXxq5v-49" value="" style="edgeStyle=orthogonalEdgeStyle;shape=connector;rounded=1;orthogonalLoop=1;jettySize=auto;html=1;labelBackgroundColor=#283618;fontFamily=Helvetica;fontSize=22;fontColor=#FFFFFF;endArrow=classic;endFill=1;strokeColor=#CC0000;strokeWidth=4;" edge="1" parent="WIyWlLk6GJQsqaUBKTNV-1" source="U22NtTWbExk0TIaXxq5v-34" target="U22NtTWbExk0TIaXxq5v-48">
          <mxGeometry relative="1" as="geometry" />
        </mxCell>
        <mxCell id="U22NtTWbExk0TIaXxq5v-34" value="Essential Whorl" style="rounded=0;whiteSpace=wrap;html=1;fontSize=25;fillColor=#BC6C25;strokeColor=#DDA15E;fontColor=#FEFAE0;" vertex="1" parent="WIyWlLk6GJQsqaUBKTNV-1">
          <mxGeometry x="540" y="390" width="205" height="60" as="geometry" />
        </mxCell>
        <mxCell id="U22NtTWbExk0TIaXxq5v-38" style="edgeStyle=orthogonalEdgeStyle;shape=connector;rounded=1;orthogonalLoop=1;jettySize=auto;html=1;exitX=0.5;exitY=1;exitDx=0;exitDy=0;entryX=0.5;entryY=0;entryDx=0;entryDy=0;labelBackgroundColor=#283618;fontFamily=Helvetica;fontSize=25;fontColor=#FEFAE0;endArrow=classic;endFill=1;strokeColor=#CC0000;strokeWidth=4;" edge="1" parent="WIyWlLk6GJQsqaUBKTNV-1" source="U22NtTWbExk0TIaXxq5v-35" target="U22NtTWbExk0TIaXxq5v-29">
          <mxGeometry relative="1" as="geometry" />
        </mxCell>
        <mxCell id="U22NtTWbExk0TIaXxq5v-35" value="&lt;font style=&quot;font-size: 23px;&quot;&gt;4 Whorls&lt;/font&gt;" style="whiteSpace=wrap;html=1;fillColor=#BC6C25;strokeColor=#DDA15E;fontColor=#FEFAE0;" vertex="1" parent="WIyWlLk6GJQsqaUBKTNV-1">
          <mxGeometry x="360" y="245" width="120" height="60" as="geometry" />
        </mxCell>
        <mxCell id="U22NtTWbExk0TIaXxq5v-41" value="Calyx" style="whiteSpace=wrap;html=1;fontSize=25;fillColor=#BC6C25;strokeColor=#DDA15E;fontColor=#FEFAE0;rounded=0;" vertex="1" parent="WIyWlLk6GJQsqaUBKTNV-1">
          <mxGeometry x="30" y="540" width="120" height="60" as="geometry" />
        </mxCell>
        <mxCell id="U22NtTWbExk0TIaXxq5v-44" value="Corolla" style="rounded=0;whiteSpace=wrap;html=1;fontFamily=Helvetica;fontSize=22;fontColor=#FFFFFF;strokeColor=#DDA15E;fillColor=#BC6C25;" vertex="1" parent="WIyWlLk6GJQsqaUBKTNV-1">
          <mxGeometry x="270" y="540" width="120" height="60" as="geometry" />
        </mxCell>
        <mxCell id="U22NtTWbExk0TIaXxq5v-51" value="" style="edgeStyle=orthogonalEdgeStyle;shape=connector;rounded=1;orthogonalLoop=1;jettySize=auto;html=1;labelBackgroundColor=#283618;fontFamily=Helvetica;fontSize=22;fontColor=#FFFFFF;endArrow=classic;endFill=1;strokeColor=#CC0000;strokeWidth=4;" edge="1" parent="WIyWlLk6GJQsqaUBKTNV-1" source="U22NtTWbExk0TIaXxq5v-45" target="U22NtTWbExk0TIaXxq5v-50">
          <mxGeometry relative="1" as="geometry" />
        </mxCell>
        <mxCell id="U22NtTWbExk0TIaXxq5v-45" value="Androecium" style="whiteSpace=wrap;html=1;fontSize=25;fillColor=#BC6C25;strokeColor=#DDA15E;fontColor=#FEFAE0;rounded=0;" vertex="1" parent="WIyWlLk6GJQsqaUBKTNV-1">
          <mxGeometry x="450" y="540" width="167.5" height="60" as="geometry" />
        </mxCell>
        <mxCell id="U22NtTWbExk0TIaXxq5v-48" value="Gynoecium" style="whiteSpace=wrap;html=1;fontSize=25;fillColor=#BC6C25;strokeColor=#DDA15E;fontColor=#FEFAE0;rounded=0;" vertex="1" parent="WIyWlLk6GJQsqaUBKTNV-1">
          <mxGeometry x="660" y="540" width="150" height="60" as="geometry" />
        </mxCell>
        <mxCell id="U22NtTWbExk0TIaXxq5v-54" value="" style="edgeStyle=orthogonalEdgeStyle;shape=connector;rounded=1;orthogonalLoop=1;jettySize=auto;html=1;labelBackgroundColor=#283618;fontFamily=Helvetica;fontSize=22;fontColor=#FFFFFF;endArrow=classic;endFill=1;strokeColor=#CC0000;strokeWidth=4;exitX=0.5;exitY=1;exitDx=0;exitDy=0;" edge="1" parent="WIyWlLk6GJQsqaUBKTNV-1" source="U22NtTWbExk0TIaXxq5v-50" target="U22NtTWbExk0TIaXxq5v-53">
          <mxGeometry relative="1" as="geometry" />
        </mxCell>
        <mxCell id="U22NtTWbExk0TIaXxq5v-56" value="" style="edgeStyle=orthogonalEdgeStyle;shape=connector;rounded=1;orthogonalLoop=1;jettySize=auto;html=1;labelBackgroundColor=#283618;fontFamily=Helvetica;fontSize=22;fontColor=#FFFFFF;endArrow=classic;endFill=1;strokeColor=#CC0000;strokeWidth=4;exitX=0.5;exitY=1;exitDx=0;exitDy=0;" edge="1" parent="WIyWlLk6GJQsqaUBKTNV-1" source="U22NtTWbExk0TIaXxq5v-50" target="U22NtTWbExk0TIaXxq5v-55">
          <mxGeometry relative="1" as="geometry" />
        </mxCell>
        <mxCell id="U22NtTWbExk0TIaXxq5v-50" value="Stamen" style="whiteSpace=wrap;html=1;fontSize=25;fillColor=#BC6C25;strokeColor=#DDA15E;fontColor=#FEFAE0;rounded=0;" vertex="1" parent="WIyWlLk6GJQsqaUBKTNV-1">
          <mxGeometry x="475" y="705" width="120" height="60" as="geometry" />
        </mxCell>
        <mxCell id="U22NtTWbExk0TIaXxq5v-52" value="Individual Unit" style="text;html=1;align=center;verticalAlign=middle;resizable=0;points=[];autosize=1;strokeColor=none;fillColor=none;fontSize=22;fontFamily=Helvetica;fontColor=#FFFFFF;strokeWidth=1;" vertex="1" parent="WIyWlLk6GJQsqaUBKTNV-1">
          <mxGeometry x="452.5" y="618" width="165" height="45" as="geometry" />
        </mxCell>
        <mxCell id="U22NtTWbExk0TIaXxq5v-53" value="Proximal end" style="whiteSpace=wrap;html=1;fontSize=25;fillColor=#BC6C25;strokeColor=#DDA15E;fontColor=#FEFAE0;rounded=0;" vertex="1" parent="WIyWlLk6GJQsqaUBKTNV-1">
          <mxGeometry x="294" y="870" width="156" height="60" as="geometry" />
        </mxCell>
        <mxCell id="U22NtTWbExk0TIaXxq5v-55" value="Distal end" style="whiteSpace=wrap;html=1;fontSize=25;fillColor=#BC6C25;strokeColor=#DDA15E;fontColor=#FEFAE0;rounded=0;" vertex="1" parent="WIyWlLk6GJQsqaUBKTNV-1">
          <mxGeometry x="585" y="870" width="160" height="60" as="geometry" />
        </mxCell>
      </root>
    </mxGraphModel>
  </diagram>
</mxfile>
